<svg width="54" height="54" viewBox="0 0 54 54" fill="none" xmlns="http://www.w3.org/2000/svg">
<g id="FilterTriangle">
<g clip-path="url(#clip0)">
<path id="Vector" d="M10.8882 53.3269L47.9029 30.9663C50.9204 29.1558 50.9082 24.7909 47.9057 22.9893L10.8869 0.672623C10.886 0.672096 10.885 0.671463 10.8841 0.670936C7.78233 -1.19017 3.83812 1.04071 3.83812 4.66029L3.83812 49.3401C3.83822 52.9542 7.77579 55.1943 10.8882 53.3269ZM7.00176 49.34L7.00176 4.66029C7.00176 3.50372 8.26085 2.78906 9.25352 3.38201L46.2752 25.7004C47.2358 26.2766 47.2438 27.6721 46.271 28.2558L9.25636 50.6163C8.26411 51.2119 7.00176 50.4987 7.00176 49.34Z" fill="#394149"/>
</g>
</g>
<defs>
<clipPath id="clip0">
<rect width="54" height="54" fill="white"/>
</clipPath>
</defs>
</svg>
