<svg width="44" height="55" viewBox="0 0 44 55" fill="none" xmlns="http://www.w3.org/2000/svg">
<path id="Bell" d="M43.0916 43.7694C42.9281 43.6644 41.698 42.812 40.4661 40.2334C38.204 35.498 37.7291 28.8273 37.7291 24.0652C37.7291 24.0445 37.7287 24.0239 37.7279 24.0033C37.7033 17.7096 33.893 12.2841 28.4405 9.84983V6.12691C28.4405 2.7485 25.6663 0 22.2562 0H21.7437C18.3337 0 15.5594 2.7485 15.5594 6.12691V9.84962C10.0887 12.2917 6.27084 17.7449 6.27084 24.0652C6.27084 28.8273 5.79601 35.4979 3.53383 40.2334C2.30212 42.8119 1.07193 43.6643 0.908372 43.7694C0.219587 44.0846 -0.120027 44.813 0.0384308 45.5511C0.198409 46.2965 0.902833 46.8104 1.6721 46.8104H13.6131C13.6798 51.3372 17.4152 55 22 55C26.5849 55 30.3203 51.3372 30.387 46.8104H42.328C43.0971 46.8104 43.8017 46.2965 43.9617 45.5511C44.1199 44.813 43.7804 44.0845 43.0916 43.7694ZM18.8178 6.12691C18.8178 4.52837 20.1304 3.22792 21.7438 3.22792H22.2564C23.8698 3.22792 25.1824 4.52837 25.1824 6.12691V8.80354C24.1542 8.59332 23.0897 8.48268 21.9996 8.48268C20.9098 8.48268 19.8457 8.59321 18.8179 8.80322V6.12691H18.8178ZM22 51.7721C19.2118 51.7721 16.9374 49.5574 16.8713 46.8105H27.1287C27.0626 49.5573 24.7883 51.7721 22 51.7721ZM28.5599 43.5823C28.5596 43.5823 5.38482 43.5823 5.38482 43.5823C5.66666 43.1479 5.95349 42.656 6.23858 42.1001C8.42201 37.8416 9.52915 31.7738 9.52915 24.0652C9.52915 17.2528 15.1234 11.7106 21.9995 11.7106C28.8756 11.7106 34.4698 17.2528 34.4698 24.0706C34.4698 24.0904 34.4702 24.1102 34.4709 24.13C34.4771 31.8076 35.5842 37.8536 37.7615 42.1001C38.0466 42.6562 38.3335 43.1479 38.6153 43.5823H28.5599Z" fill="#394149"/>
</svg>
