<svg xmlns="http://www.w3.org/2000/svg" width="1024" height="270" viewBox="0 0 1024 270">
  <defs>
    <style>
      .cls-1 {
        fill: #394149;
        fill-rule: evenodd;
      }
    </style>
  </defs>
  <g id="Zeichenfläche_1" data-name="Zeichenfläche 1">
    <path id="Bubble" class="cls-1" d="M7.914,238.853V468h92.729c50.661,0,79.99-26.109,79.99-63.883,0-36.942-21.627-52.774-52.141-57.773,20.738-10,30.514-28.054,30.514-49.163,0-43.607-33.181-58.328-75.249-58.328H7.914Zm55.7,40.274h4.444c24.293,0,37.032,6.944,37.032,23.331,0,19.166-13.035,26.109-37.032,26.109H63.611v-49.44Zm0,94.437H81.09c26.367,0,40.884,7.5,40.884,28.608,0,18.054-14.517,25.554-40.884,25.554H63.611V373.564ZM196.333,325.79v79.993c0,47.774,25.478,66.661,82.36,66.661s82.36-18.887,82.36-66.661V325.79H308.615v68.05c0,28.053-8,38.607-29.922,38.607s-29.922-10.554-29.922-38.607V325.79H196.333Zm190.494-96.659V468h53.327V452.724a71.87,71.87,0,0,0,49.771,19.72c44.439,0,75.25-33.886,75.25-75.549s-30.811-75.549-75.25-75.549c-20.442,0-37.329,6.666-49.771,18.054V229.131H386.827ZM438.969,396.9c0-19.721,15.7-33.608,35.254-33.608,19.85,0,35.255,13.887,35.255,33.608,0,19.443-13.924,33.608-35.255,33.608C453.782,430.5,438.969,416.338,438.969,396.9Zm144.28-167.764V468h53.326V452.724a71.874,71.874,0,0,0,49.772,19.72c44.439,0,75.25-33.886,75.25-75.549s-30.811-75.549-75.25-75.549c-20.442,0-37.329,6.666-49.772,18.054V229.131H583.249ZM635.39,396.9c0-19.721,15.7-33.608,35.255-33.608,19.85,0,35.255,13.887,35.255,33.608,0,19.443-13.924,33.608-35.255,33.608C650.2,430.5,635.39,416.338,635.39,396.9ZM780.559,229.131V468h52.734V229.131H780.559Zm71.4,167.486c0,41.386,37.625,75.827,83.545,75.827,33.774,0,61.622-10.277,78.81-37.219l-37.926-17.776c-12.739,12.776-20.145,15.832-37.032,15.832-13.332,0-32.885-7.777-32.885-29.72H1016.68a49.19,49.19,0,0,0,.29-6.666c0-50-35.253-75.549-81.47-75.549C889.58,321.346,851.955,354.954,851.955,396.617Zm55.993-20.276c0.889-13.054,10.962-23.053,29.034-23.053,15.4,0,26.367,8.054,28.737,23.053H907.948Z" transform="translate(0 -216)"/>
  </g>
</svg>
