<svg width="49" height="49" viewBox="0 0 49 49" fill="none" xmlns="http://www.w3.org/2000/svg">
<g id="UserIcon 1">
<g clip-path="url(#clip0)">
<g id="Group">
<g id="Group_2">
<path id="Vector" d="M22.6395 1.18679C19.2144 1.44943 16.2112 2.23785 13.4427 3.60789C3.15763 8.69409 -2.06969 20.0964 0.764474 31.2356C2.55689 38.2455 7.7651 44.3362 14.4281 47.189C17.2716 48.4091 20.0117 49.0284 23.1555 49.1406C29.7994 49.4033 36.2562 46.8602 40.9856 42.14C45.9405 37.1758 48.5493 30.0718 47.9299 23.1839C47.4233 17.5719 45.1521 12.5514 41.3326 8.58188C37.5037 4.59328 32.5488 2.0786 27.1902 1.37496C26.0833 1.22453 23.4838 1.12114 22.6395 1.18679ZM27.0971 4.36837C40.0003 6.32935 48.0519 19.4486 43.9325 31.8172C42.975 34.6984 40.9949 37.9265 38.9869 39.8689L38.5739 40.2726L38.3205 39.5406C37.5414 37.3542 36.4061 35.5711 34.6607 33.835C32.3803 31.5545 29.9405 30.2315 26.8717 29.6122C23.5965 28.9458 20.2934 29.3495 17.2623 30.7852C13.7431 32.4557 10.956 35.4211 9.54822 39.0153C9.36055 39.494 9.18219 39.9164 9.15426 39.9443C9.07929 40.0193 7.90623 38.7149 7.14624 37.7109C4.47132 34.1633 2.97927 29.6685 2.97927 25.1826C2.97927 18.1256 6.48914 11.6037 12.4201 7.64353C15.3385 5.69186 18.501 4.59377 22.3583 4.19001C23.1276 4.11455 26.1396 4.22725 27.0971 4.36837Z" fill="#394149"/>
<path id="Vector_2" d="M22.5646 8.92877C21.6635 9.05078 20.2841 9.52951 19.4394 10.0078C17.3559 11.1999 15.9202 13.011 15.2165 15.3571C14.8691 16.5395 14.8035 18.3412 15.0666 19.6176C15.7511 22.9491 18.2477 25.5765 21.5694 26.4869C22.2451 26.6746 22.5734 26.7025 23.9062 26.6932C25.314 26.6932 25.5296 26.6653 26.2896 26.4306C29.5368 25.4452 31.8638 22.9491 32.6052 19.674C32.8399 18.6607 32.8115 16.7835 32.5488 15.7324C32.3141 14.775 31.6761 13.3584 31.1602 12.6449C29.9028 10.8996 27.9791 9.59517 25.9706 9.10713C25.0322 8.88222 23.4652 8.79745 22.5646 8.92877Z" fill="#394149"/>
</g>
</g>
</g>
</g>
<defs>
<clipPath id="clip0">
<rect width="49" height="49" fill="white"/>
</clipPath>
</defs>
</svg>
